<svg width="30" height="30" viewBox="0 0 30 30" fill="none" xmlns="http://www.w3.org/2000/svg">
<path d="M24.7621 6.12753C22.9143 5.2819 20.9633 4.68097 18.9599 4.34253C18.6862 4.83284 18.4377 5.33722 18.2165 5.85378C16.0818 5.53222 13.9115 5.53222 11.7768 5.85378C11.5555 5.33722 11.308 4.83284 11.0333 4.34253C9.02803 4.68472 7.07616 5.28565 5.22647 6.13222C1.55428 11.565 0.558655 16.8628 1.05647 22.0857C3.20709 23.6747 5.61366 24.8832 8.17303 25.6585C8.74959 24.8832 9.25865 24.061 9.6974 23.2003C8.8649 22.8891 8.06241 22.5057 7.29741 22.0547C7.49897 21.9085 7.69584 21.7585 7.88615 21.6122C12.3918 23.731 17.608 23.731 22.1146 21.6122C22.3068 21.7697 22.5037 21.9197 22.7033 22.0547C21.9374 22.5075 21.1321 22.891 20.2987 23.2032C20.7365 24.0638 21.2465 24.885 21.823 25.6585C24.3843 24.886 26.7927 23.6785 28.9443 22.0885C29.5283 16.0313 27.9458 10.7822 24.7621 6.12753ZM10.3283 18.8738C8.94178 18.8738 7.79522 17.6147 7.79522 16.0669C7.79522 14.5191 8.90147 13.2488 10.3237 13.2488C11.7458 13.2488 12.883 14.5182 12.8587 16.0669C12.8343 17.6157 11.7412 18.8738 10.3283 18.8738ZM19.6724 18.8738C18.283 18.8738 17.1421 17.6147 17.1421 16.0669C17.1421 14.5191 18.2483 13.2488 19.6724 13.2488C21.0965 13.2488 22.2252 14.5182 22.2008 16.0669C22.1765 17.6157 21.0862 18.8738 19.6724 18.8738Z" fill="#FBB616"/>
</svg>
